<mxfile host="app.diagrams.net" modified="2024-02-04T05:38:03.185Z" agent="Mozilla/5.0 (Macintosh; Intel Mac OS X 10_15_7) AppleWebKit/537.36 (KHTML, like Gecko) Chrome/121.0.0.0 Safari/537.36" etag="r3mutULpCfqGw2s3vZVW" version="22.1.16" type="github">
  <diagram name="Page-1" id="AaMWgPsMxkMeqbZModzo">
    <mxGraphModel dx="933" dy="591" grid="1" gridSize="10" guides="1" tooltips="1" connect="1" arrows="1" fold="1" page="1" pageScale="1" pageWidth="827" pageHeight="1169" math="0" shadow="0">
      <root>
        <mxCell id="0" />
        <mxCell id="1" parent="0" />
        <mxCell id="kEYijuz1bv-vJgQnE_e6-1" value="" style="outlineConnect=0;dashed=0;verticalLabelPosition=bottom;verticalAlign=top;align=center;html=1;shape=mxgraph.aws3.route_53;fillColor=#F58536;gradientColor=none;" vertex="1" parent="1">
          <mxGeometry x="75.27000000000001" y="90" width="49.47" height="60" as="geometry" />
        </mxCell>
        <mxCell id="kEYijuz1bv-vJgQnE_e6-2" value="&lt;b&gt;DNS&lt;/b&gt;&lt;br&gt;AWS Route 53" style="text;strokeColor=none;align=center;fillColor=none;html=1;verticalAlign=middle;whiteSpace=wrap;rounded=0;" vertex="1" parent="1">
          <mxGeometry x="40" y="40" width="120" height="60" as="geometry" />
        </mxCell>
        <mxCell id="kEYijuz1bv-vJgQnE_e6-6" value="" style="dashed=0;outlineConnect=0;html=1;align=center;labelPosition=center;verticalLabelPosition=bottom;verticalAlign=top;shape=mxgraph.weblogos.chrome" vertex="1" parent="1">
          <mxGeometry x="330" y="90" width="59.52" height="60" as="geometry" />
        </mxCell>
        <mxCell id="kEYijuz1bv-vJgQnE_e6-7" value="&lt;b&gt;WEB BROWSER&lt;br&gt;&lt;/b&gt;" style="text;strokeColor=none;align=center;fillColor=none;html=1;verticalAlign=middle;whiteSpace=wrap;rounded=0;" vertex="1" parent="1">
          <mxGeometry x="300" y="60" width="116.2" height="30" as="geometry" />
        </mxCell>
        <mxCell id="kEYijuz1bv-vJgQnE_e6-8" value="" style="outlineConnect=0;dashed=0;verticalLabelPosition=bottom;verticalAlign=top;align=center;html=1;shape=mxgraph.aws3.cloudfront;fillColor=#F58536;gradientColor=none;" vertex="1" parent="1">
          <mxGeometry x="621.21" y="90" width="57.58" height="70" as="geometry" />
        </mxCell>
        <mxCell id="kEYijuz1bv-vJgQnE_e6-9" value="&lt;b&gt;CDN&lt;/b&gt;&lt;br&gt;AWS Cloudfront" style="text;strokeColor=none;align=center;fillColor=none;html=1;verticalAlign=middle;whiteSpace=wrap;rounded=0;" vertex="1" parent="1">
          <mxGeometry x="600" y="40" width="100" height="50" as="geometry" />
        </mxCell>
        <mxCell id="kEYijuz1bv-vJgQnE_e6-10" value="" style="outlineConnect=0;dashed=0;verticalLabelPosition=bottom;verticalAlign=top;align=center;html=1;shape=mxgraph.aws3.elastic_load_balancing;fillColor=#F58534;gradientColor=none;" vertex="1" parent="1">
          <mxGeometry x="340" y="210" width="49.35" height="60" as="geometry" />
        </mxCell>
        <mxCell id="kEYijuz1bv-vJgQnE_e6-11" value="&lt;b&gt;LOAD BALANCER&lt;/b&gt;&lt;br&gt;AWS Cloudfront" style="text;strokeColor=none;align=center;fillColor=none;html=1;verticalAlign=middle;whiteSpace=wrap;rounded=0;" vertex="1" parent="1">
          <mxGeometry x="390" y="180" width="110" height="55" as="geometry" />
        </mxCell>
        <mxCell id="kEYijuz1bv-vJgQnE_e6-12" value="" style="outlineConnect=0;dashed=0;verticalLabelPosition=bottom;verticalAlign=top;align=center;html=1;shape=mxgraph.aws3.ec2;fillColor=#F58534;gradientColor=none;" vertex="1" parent="1">
          <mxGeometry x="340" y="340" width="49.35" height="60" as="geometry" />
        </mxCell>
        <mxCell id="kEYijuz1bv-vJgQnE_e6-13" value="&lt;b&gt;APP SERVERS&lt;/b&gt;&lt;br&gt;AWS EC2" style="text;strokeColor=none;align=center;fillColor=none;html=1;verticalAlign=middle;whiteSpace=wrap;rounded=0;" vertex="1" parent="1">
          <mxGeometry x="370" y="310" width="110" height="55" as="geometry" />
        </mxCell>
        <mxCell id="kEYijuz1bv-vJgQnE_e6-14" value="" style="shape=datastore;whiteSpace=wrap;html=1;" vertex="1" parent="1">
          <mxGeometry x="75" y="340" width="60" height="60" as="geometry" />
        </mxCell>
        <mxCell id="kEYijuz1bv-vJgQnE_e6-15" value="&lt;b&gt;DATABASE&lt;/b&gt;" style="text;strokeColor=none;align=center;fillColor=none;html=1;verticalAlign=middle;whiteSpace=wrap;rounded=0;" vertex="1" parent="1">
          <mxGeometry x="50" y="300" width="110" height="55" as="geometry" />
        </mxCell>
        <mxCell id="kEYijuz1bv-vJgQnE_e6-16" value="" style="outlineConnect=0;dashed=0;verticalLabelPosition=bottom;verticalAlign=top;align=center;html=1;shape=mxgraph.aws3.s3;fillColor=#E05243;gradientColor=none;" vertex="1" parent="1">
          <mxGeometry x="623.23" y="210" width="49.35" height="60" as="geometry" />
        </mxCell>
        <mxCell id="kEYijuz1bv-vJgQnE_e6-17" value="&lt;b&gt;CLOUD STORAGE&lt;/b&gt;&lt;br&gt;AWS S3" style="text;strokeColor=none;align=center;fillColor=none;html=1;verticalAlign=middle;whiteSpace=wrap;rounded=0;" vertex="1" parent="1">
          <mxGeometry x="685" y="210" width="110" height="55" as="geometry" />
        </mxCell>
        <mxCell id="kEYijuz1bv-vJgQnE_e6-19" value="" style="outlineConnect=0;dashed=0;verticalLabelPosition=bottom;verticalAlign=top;align=center;html=1;shape=mxgraph.aws3.redshift;fillColor=#2E73B8;gradientColor=none;" vertex="1" parent="1">
          <mxGeometry x="623" y="340" width="54" height="60" as="geometry" />
        </mxCell>
        <mxCell id="kEYijuz1bv-vJgQnE_e6-20" value="&lt;b&gt;DATA WAREHOUSE&lt;/b&gt;&lt;br&gt;AWS Redshift" style="text;strokeColor=none;align=center;fillColor=none;html=1;verticalAlign=middle;whiteSpace=wrap;rounded=0;" vertex="1" parent="1">
          <mxGeometry x="685" y="310" width="125" height="55" as="geometry" />
        </mxCell>
        <mxCell id="kEYijuz1bv-vJgQnE_e6-21" value="" style="image;sketch=0;aspect=fixed;html=1;points=[];align=center;fontSize=12;image=img/lib/mscae/Cache_Redis_Product.svg;" vertex="1" parent="1">
          <mxGeometry x="67.5" y="626" width="50" height="42" as="geometry" />
        </mxCell>
        <mxCell id="kEYijuz1bv-vJgQnE_e6-22" value="" style="image;sketch=0;aspect=fixed;html=1;points=[];align=center;fontSize=12;image=img/lib/mscae/Cache_Redis_Product.svg;" vertex="1" parent="1">
          <mxGeometry x="175.5" y="626" width="50" height="42" as="geometry" />
        </mxCell>
        <mxCell id="kEYijuz1bv-vJgQnE_e6-23" value="" style="image;sketch=0;aspect=fixed;html=1;points=[];align=center;fontSize=12;image=img/lib/mscae/Cache_Redis_Product.svg;" vertex="1" parent="1">
          <mxGeometry x="283.5" y="626" width="50" height="42" as="geometry" />
        </mxCell>
        <mxCell id="kEYijuz1bv-vJgQnE_e6-24" value="" style="image;sketch=0;aspect=fixed;html=1;points=[];align=center;fontSize=12;image=img/lib/mscae/Cache_Redis_Product.svg;" vertex="1" parent="1">
          <mxGeometry x="391.5" y="626" width="50" height="42" as="geometry" />
        </mxCell>
        <mxCell id="kEYijuz1bv-vJgQnE_e6-25" value="" style="image;sketch=0;aspect=fixed;html=1;points=[];align=center;fontSize=12;image=img/lib/mscae/Cache_Redis_Product.svg;" vertex="1" parent="1">
          <mxGeometry x="499.5" y="626" width="50" height="42" as="geometry" />
        </mxCell>
        <mxCell id="kEYijuz1bv-vJgQnE_e6-26" value="&lt;b&gt;CACHING&lt;br&gt;STRING / JSON&lt;br&gt;&lt;/b&gt;" style="text;strokeColor=none;align=center;fillColor=none;html=1;verticalAlign=middle;whiteSpace=wrap;rounded=0;" vertex="1" parent="1">
          <mxGeometry x="107.5" y="585" width="60" height="55" as="geometry" />
        </mxCell>
        <mxCell id="kEYijuz1bv-vJgQnE_e6-27" value="&lt;b&gt;JOB &lt;br&gt;QUEUE&lt;/b&gt;" style="text;strokeColor=none;align=center;fillColor=none;html=1;verticalAlign=middle;whiteSpace=wrap;rounded=0;" vertex="1" parent="1">
          <mxGeometry x="217.5" y="599" width="60" height="27" as="geometry" />
        </mxCell>
        <mxCell id="kEYijuz1bv-vJgQnE_e6-28" value="" style="strokeWidth=2;html=1;shape=mxgraph.lean_mapping.buffer_or_safety_stock;" vertex="1" parent="1">
          <mxGeometry x="195.5" y="686" width="10" height="50" as="geometry" />
        </mxCell>
        <mxCell id="kEYijuz1bv-vJgQnE_e6-29" value="" style="strokeWidth=2;html=1;shape=mxgraph.lean_mapping.buffer_or_safety_stock;" vertex="1" parent="1">
          <mxGeometry x="195.5" y="746" width="10" height="50" as="geometry" />
        </mxCell>
        <mxCell id="kEYijuz1bv-vJgQnE_e6-30" value="" style="outlineConnect=0;dashed=0;verticalLabelPosition=bottom;verticalAlign=top;align=center;html=1;shape=mxgraph.aws3.ec2;fillColor=#F58534;gradientColor=none;" vertex="1" parent="1">
          <mxGeometry x="67.5" y="741" width="49.35" height="60" as="geometry" />
        </mxCell>
        <mxCell id="kEYijuz1bv-vJgQnE_e6-31" value="&lt;b&gt;WORKERS&lt;/b&gt;&lt;br&gt;AWS EC2" style="text;strokeColor=none;align=center;fillColor=none;html=1;verticalAlign=middle;whiteSpace=wrap;rounded=0;" vertex="1" parent="1">
          <mxGeometry x="42.5" y="691" width="110" height="55" as="geometry" />
        </mxCell>
        <mxCell id="kEYijuz1bv-vJgQnE_e6-32" value="&lt;b&gt;TEXT&lt;br&gt;SEARCH&lt;/b&gt;" style="text;strokeColor=none;align=center;fillColor=none;html=1;verticalAlign=middle;whiteSpace=wrap;rounded=0;" vertex="1" parent="1">
          <mxGeometry x="327.5" y="599" width="60" height="27" as="geometry" />
        </mxCell>
        <mxCell id="kEYijuz1bv-vJgQnE_e6-33" value="&lt;b&gt;TIME&lt;br&gt;SERIES&lt;/b&gt;" style="text;strokeColor=none;align=center;fillColor=none;html=1;verticalAlign=middle;whiteSpace=wrap;rounded=0;" vertex="1" parent="1">
          <mxGeometry x="437.5" y="599" width="60" height="27" as="geometry" />
        </mxCell>
        <mxCell id="kEYijuz1bv-vJgQnE_e6-34" value="&lt;b&gt;GEO&lt;br&gt;LOCATION&lt;br&gt;&lt;/b&gt;" style="text;strokeColor=none;align=center;fillColor=none;html=1;verticalAlign=middle;whiteSpace=wrap;rounded=0;" vertex="1" parent="1">
          <mxGeometry x="537.5" y="599" width="60" height="27" as="geometry" />
        </mxCell>
        <mxCell id="kEYijuz1bv-vJgQnE_e6-35" value="&lt;b&gt;RATE&lt;br&gt;LIMITING&lt;br&gt;&lt;/b&gt;" style="text;strokeColor=none;align=center;fillColor=none;html=1;verticalAlign=middle;whiteSpace=wrap;rounded=0;" vertex="1" parent="1">
          <mxGeometry x="647.5" y="599" width="60" height="27" as="geometry" />
        </mxCell>
        <mxCell id="kEYijuz1bv-vJgQnE_e6-36" value="" style="image;sketch=0;aspect=fixed;html=1;points=[];align=center;fontSize=12;image=img/lib/mscae/Cache_Redis_Product.svg;" vertex="1" parent="1">
          <mxGeometry x="607.5" y="626" width="50" height="42" as="geometry" />
        </mxCell>
        <mxCell id="kEYijuz1bv-vJgQnE_e6-37" value="&lt;b&gt;PUB&lt;br&gt;SUB&lt;br&gt;&lt;/b&gt;" style="text;strokeColor=none;align=center;fillColor=none;html=1;verticalAlign=middle;whiteSpace=wrap;rounded=0;" vertex="1" parent="1">
          <mxGeometry x="747.5" y="599" width="60" height="27" as="geometry" />
        </mxCell>
        <mxCell id="kEYijuz1bv-vJgQnE_e6-38" value="" style="image;sketch=0;aspect=fixed;html=1;points=[];align=center;fontSize=12;image=img/lib/mscae/Cache_Redis_Product.svg;" vertex="1" parent="1">
          <mxGeometry x="707.5" y="626" width="50" height="42" as="geometry" />
        </mxCell>
        <mxCell id="kEYijuz1bv-vJgQnE_e6-39" value="" style="image;sketch=0;aspect=fixed;html=1;points=[];align=center;fontSize=12;image=img/lib/mscae/Cache_Redis_Product.svg;" vertex="1" parent="1">
          <mxGeometry x="80" y="349" width="50" height="42" as="geometry" />
        </mxCell>
        <mxCell id="kEYijuz1bv-vJgQnE_e6-40" value="&lt;b&gt;AUTO TIERING&lt;br&gt;&lt;/b&gt;" style="text;strokeColor=none;align=center;fillColor=none;html=1;verticalAlign=middle;whiteSpace=wrap;rounded=0;" vertex="1" parent="1">
          <mxGeometry x="75.27" y="391" width="60" height="55" as="geometry" />
        </mxCell>
        <mxCell id="kEYijuz1bv-vJgQnE_e6-41" value="" style="strokeWidth=2;html=1;shape=mxgraph.lean_mapping.buffer_or_safety_stock;rotation=90;" vertex="1" parent="1">
          <mxGeometry x="522" y="355" width="10" height="50" as="geometry" />
        </mxCell>
        <mxCell id="kEYijuz1bv-vJgQnE_e6-42" value="" style="strokeWidth=2;html=1;shape=mxgraph.lean_mapping.buffer_or_safety_stock;rotation=90;" vertex="1" parent="1">
          <mxGeometry x="522" y="340" width="10" height="50" as="geometry" />
        </mxCell>
      </root>
    </mxGraphModel>
  </diagram>
</mxfile>
